<?xml version="1.0" encoding="UTF-8"?>
<svg id="Layer_1" data-name="Layer 1" xmlns="http://www.w3.org/2000/svg" viewBox="0 0 459.98 445.71">
  <defs>
    <style>
      .cls-1 {
        fill: #bc74b0;
      }
    </style>
  </defs>
  <path class="cls-1" d="M283.4,0v8.06c70.45,18.08,126.07,76.92,143,147.32,5.52,1.03,10.51,1.7,15.61,4.27,29.44,14.82,20.58,56.57-11.03,61.06-1.12,14.96-4.39,29.2-8.59,43.54-.73,2.5-3.3,7.87-3.49,9.78-.43,4.43,9.81,17.71,13.12,21.19.79.84,9.11,7.37,8.08,8.33-12.32-2.13-24.83-2.73-36.56,2.32-6.21,10.9-13.74,21.02-21.9,30.52-1.66,1.94-9.89,9.84-10.4,10.96-.58,1.29,1.73,5.72,2.2,7.59,8.47,33.86-34.5,53.46-58.6,31.58-13.89,5.75-28.03,11.06-42.89,13.85.78,11.08-.44,20.71-7.56,29.59-25.46,31.76-80.82,12.23-74.3-29.65-14.45-2.56-28.27-7.62-41.72-13.28-20.88,29.81-73.47,9.13-62.27-27.62,1.29-4.25,3.77-7.16,5.42-11.11-2.49-3.07-5.67-5.53-8.3-8.46-6.95-7.77-11.51-15.88-20.49-21.56-17.26-10.92-34.33-10.74-54.1-8.41,10.88-8.7,21.57-15.65,26.94-29.22,6.43-16.24,1.68-21.47-1.41-36.91-1.19-5.95-2.08-11.96-2.73-18.01-12.28-2.09-23.84-8.86-28.83-20.71-9.55-22.67,8.85-44.33,31.88-44.99C49.76,87.62,106.59,26.41,178.55,8.06V0h104.84ZM390.54,186.05c.64-11.98,9.07-22.75,20.07-27.16,1.03-1.65-4.58-18.02-5.66-20.94-17.56-47.82-55.09-87.24-101.99-107.11-2.38-1.01-18.7-7.53-19.57-6.64v2.88h-104.85v-2.88c-.95-.97-20.21,6.78-22.86,7.96-46,20.51-83.09,60.64-99.7,108.24-1.09,3.13-6.89,21.39-5.81,23.1,28.03,12.7,25.12,50.67-3.59,60.36.78,6.46,1.82,12.87,3.2,19.22.64,2.94,2.86,13.42,4.36,15.22,1.08,1.29,7.56,5.25,9.37,6.19,7.21,3.73,15.87,5.99,24.01,5.65-24.35-53.46-20.74-115.88,11.28-165.26C156.78,15.52,281.59,6.88,350.78,88.43c22.39,26.39,37.34,62.88,39.19,97.62.15,2.85-.03,5.78,0,8.64.26,24.13-3.52,48.06-13.82,69.99,6.04.55,12.88-2.47,18.03-5.59,6.53-3.96,17.44-15.43,19.24-22.81.52-2.13,2.57-15.92,1.84-16.76-11.66-2.84-21.97-12.84-24.14-24.82-.55-3.03-.74-5.51-.58-8.64ZM369.14,265.44c37.73-81.47.42-183.93-84.02-216.76C162.22.9,49.37,121.62,84.5,243.51c2.57,8.92,6.23,17.53,10.04,25.96,5.59.42,11.07-1.66,16.61-2.2l-11.44,11.7c19.69,34.27,52.56,60.9,90.81,71.65,62.66,17.61,127.89-7.49,164.53-60.38,1.84-2.66,6.38-8.98,7.39-11.62.32-.84.63-1.33.36-2.3-.72-2.58-14.38-11.24-16.62-14.23,7.71.62,15.18,3.7,22.95,3.35ZM422.11,163.75c-34.93,3.26-29.92,53.1,6.67,49.29,33.91-3.53,29.44-52.67-6.67-49.29ZM30.95,168.35c-33.91,4.1-27.91,52.67,6.68,49.3,35.87-3.49,30.05-53.75-6.68-49.3ZM420.5,294.33c-1.7-3.91-4.71-7.14-6.65-10.91-3.97-7.73-4.96-13.88-6.62-22.18-.14-.68-.23-1.06-.85-1.46-9.7,8.4-21.91,13.6-34.84,13.83,5.34,7.65,10.41,16.41,11.95,25.77.44,2.66-.14,5.5.73,8.2l10.55-6.43c7.91-4.06,16.74-6.81,25.73-6.82ZM88.11,278.79c-9.94.29-19.77-2.45-28.61-6.82l-11.71-7.58c-.69,3.52-.69,6.79-1.44,10.37-1.95,9.36-6.87,18.11-12.97,25.33,10.97.53,21.36,3.83,30.92,9.12l9.98,6.43c.55-13.36,6.15-26.12,13.83-36.85ZM306.44,373.23c-9.01-28.73,20.62-50.51,47.22-40.01,2.25.89,4.2,2.57,6.52,3.1,1.04-.26,13.3-13.74,14.48-15.53,2.16-3.28,1.83-13.84,1.41-18.04-.69-6.91-4.32-14.86-8.28-20.51-43,73.83-135,102.99-211.51,61.14-25.39-13.89-45.6-34.55-61.02-58.83-1.75-.36-7,10.35-7.82,12.26-1.61,3.77-5.62,15.3-4.19,18.8.85,2.07,8.86,11.05,10.91,13.28,3.22,3.5,6.87,6.62,10.11,10.1,3.25-.6,6.2-2.2,9.56-2.55,17.19-1.79,35.67,6.61,39.79,24.58.59,2.58.6,11.26,1.31,11.94s9.67,4.08,11.4,4.73c9.57,3.6,19.64,6.33,29.71,8.15,14.16-19.8,44.01-23.44,62.61-7.72,1.53,1.29,6.87,7.69,7.73,7.74,13.81-2.67,27.23-7.01,40.09-12.64ZM333.95,338.83c-20.5,2.79-29.59,29.37-12.15,42.95,20.34,15.84,52.94-2.02,43.1-27.54-4.73-12.27-18.65-17.08-30.95-15.41ZM116.22,344.04c-34.82,3.71-29.02,52.96,6.67,49.3,34.53-3.54,29.53-53.15-6.67-49.3ZM227.97,382.04c-29.09,3.32-16.31,45.41,11.96,35.57,21.32-7.43,11.57-38.26-11.96-35.57ZM207.93,387.07c-.79-.83-3.5,3.23-3.92,3.85-12.09,17.49-2.03,38.46,17.3,44.12,22.66,6.63,47.5-11.94,40.46-36.42-1.37-4.75-4.02-8.19-7.47-11.54-1.72.11-.75-.01-.23.64,6.02,7.5,5.15,20.44-.64,27.86-12.92,16.55-40.71,11.15-47.49-8.36-2.66-7.67-1.25-13,1.99-20.13Z"/>
  <path class="cls-1" d="M167.03,114.62c24.06.57,48.26-.75,72.32-.02,14.32.43,30.39.88,42.01,10.41,13.45,11.02,20.99,31.38,14.05,48-4.5,10.76-16.62,15.53-26.41,20.24,7.74,3.51,15.68,6.96,21.69,13.16,22.77,23.52,6.36,66.27-26.56,68.37-14.02.89-28.85-.95-42.95.26l-7.48,9.23c-.33,1.47,4.44,2.39,5.53,2.52,9.4,1.1,17.31-1.97,23.85-8.58v14.4l-39.75-.58,13.25-17.27h-49.54V114.62ZM193.53,205.63l11.59-7.13c20.04-11.94,48.89-2.49,64.74-22.24,17.7-22.04,2.03-57.61-26.51-57.61h-49.83v86.97ZM193.53,211.68v58.46h27.36c4.12-6.43,10.72-12.37,14.71-18.71.31-.5.87-.77.31-1.46-5.73-4.46-13.08-5.13-19.73-2.4-3.23,1.33-5.19,3.92-8.25,4.71v-11.52h40.32l-23.04,29.95c19.7-.59,43.46-7.66,52.11-27.09,4.88-10.96,5.7-24.94-2.01-34.81-17.94-22.96-62.78-15.69-81.79,2.87Z"/>
</svg>